<svg xmlns="http://www.w3.org/2000/svg" xmlns:xlink="http://www.w3.org/1999/xlink" width="1600" zoomAndPan="magnify" viewBox="0 0 1200 749.999995" height="1000" preserveAspectRatio="xMidYMid meet" version="1.0"><rect x="-120" width="1440" fill="#ffffff" y="-74.999999" height="899.999994" fill-opacity="1"/><rect x="-120" width="1440" fill="#ffffff" y="-74.999999" height="899.999994" fill-opacity="1"/><rect x="-120" width="1440" fill="#ffffff" y="-74.999999" height="899.999994" fill-opacity="1"/><path fill="#000000" d="M -154.179688 214.296875 L -123.898438 244.582031 L 120.621094 0.03125 L -142.011719 0.03125 L -116.207031 38.738281 C -109.125 49.363281 -110.527344 63.503906 -119.554688 72.535156 L -154.179688 107.164062 L -119.554688 141.792969 C -109.09375 152.253906 -109.09375 169.207031 -119.554688 179.671875 Z M -154.179688 214.296875 " fill-opacity="1" fill-rule="nonzero"/><path fill="#000000" d="M 450.714844 482.132812 C 450.714844 483.011719 450.671875 483.886719 450.585938 484.757812 C 450.5 485.632812 450.371094 486.5 450.203125 487.359375 C 450.03125 488.21875 449.816406 489.070312 449.5625 489.910156 C 449.308594 490.75 449.011719 491.574219 448.675781 492.382812 C 448.34375 493.195312 447.96875 493.984375 447.554688 494.761719 C 447.140625 495.535156 446.691406 496.285156 446.203125 497.015625 C 445.714844 497.742188 445.195312 498.449219 444.636719 499.125 C 444.082031 499.804688 443.492188 500.453125 442.871094 501.074219 C 442.25 501.691406 441.601562 502.28125 440.925781 502.839844 C 440.246094 503.394531 439.542969 503.917969 438.8125 504.402344 C 438.085938 504.890625 437.332031 505.339844 436.558594 505.753906 C 435.785156 506.167969 434.992188 506.542969 434.183594 506.878906 C 433.375 507.214844 432.546875 507.511719 431.707031 507.765625 C 430.871094 508.019531 430.019531 508.230469 429.160156 508.402344 C 428.300781 508.574219 427.433594 508.703125 426.558594 508.789062 C 425.6875 508.875 424.8125 508.917969 423.933594 508.917969 C 423.058594 508.917969 422.183594 508.875 421.308594 508.789062 C 420.4375 508.703125 419.570312 508.574219 418.710938 508.402344 C 417.847656 508.230469 417 508.019531 416.160156 507.765625 C 415.320312 507.511719 414.496094 507.214844 413.683594 506.878906 C 412.875 506.542969 412.082031 506.167969 411.308594 505.753906 C 410.535156 505.339844 409.785156 504.890625 409.054688 504.402344 C 408.324219 503.917969 407.621094 503.394531 406.945312 502.839844 C 406.265625 502.28125 405.617188 501.691406 404.996094 501.074219 C 404.375 500.453125 403.789062 499.804688 403.230469 499.125 C 402.675781 498.449219 402.152344 497.742188 401.664062 497.015625 C 401.179688 496.285156 400.726562 495.535156 400.316406 494.761719 C 399.902344 493.984375 399.527344 493.195312 399.191406 492.382812 C 398.855469 491.574219 398.558594 490.75 398.304688 489.910156 C 398.050781 489.070312 397.839844 488.21875 397.667969 487.359375 C 397.496094 486.5 397.367188 485.632812 397.28125 484.757812 C 397.195312 483.886719 397.152344 483.011719 397.152344 482.132812 C 397.152344 481.257812 397.195312 480.382812 397.28125 479.507812 C 397.367188 478.636719 397.496094 477.769531 397.667969 476.910156 C 397.839844 476.046875 398.050781 475.199219 398.304688 474.359375 C 398.558594 473.519531 398.855469 472.695312 399.191406 471.882812 C 399.527344 471.074219 399.902344 470.28125 400.316406 469.507812 C 400.726562 468.734375 401.179688 467.984375 401.664062 467.253906 C 402.152344 466.523438 402.675781 465.820312 403.230469 465.144531 C 403.789062 464.464844 404.375 463.816406 404.996094 463.195312 C 405.617188 462.574219 406.265625 461.988281 406.945312 461.429688 C 407.621094 460.875 408.324219 460.351562 409.054688 459.863281 C 409.785156 459.378906 410.535156 458.925781 411.308594 458.511719 C 412.082031 458.101562 412.875 457.726562 413.683594 457.390625 C 414.496094 457.054688 415.320312 456.757812 416.160156 456.503906 C 417 456.25 417.847656 456.035156 418.710938 455.867188 C 419.570312 455.695312 420.4375 455.566406 421.308594 455.480469 C 422.183594 455.394531 423.058594 455.351562 423.933594 455.351562 C 424.8125 455.351562 425.6875 455.394531 426.558594 455.480469 C 427.433594 455.566406 428.300781 455.695312 429.160156 455.867188 C 430.019531 456.035156 430.871094 456.25 431.707031 456.503906 C 432.546875 456.757812 433.375 457.054688 434.183594 457.390625 C 434.992188 457.726562 435.785156 458.101562 436.558594 458.511719 C 437.332031 458.925781 438.085938 459.378906 438.8125 459.863281 C 439.542969 460.351562 440.246094 460.875 440.925781 461.429688 C 441.601562 461.988281 442.25 462.574219 442.871094 463.195312 C 443.492188 463.816406 444.082031 464.464844 444.636719 465.144531 C 445.195312 465.820312 445.714844 466.523438 446.203125 467.253906 C 446.691406 467.984375 447.140625 468.734375 447.554688 469.507812 C 447.96875 470.28125 448.34375 471.074219 448.675781 471.882812 C 449.011719 472.695312 449.308594 473.519531 449.5625 474.359375 C 449.816406 475.199219 450.03125 476.046875 450.203125 476.910156 C 450.371094 477.769531 450.5 478.636719 450.585938 479.507812 C 450.671875 480.382812 450.714844 481.257812 450.714844 482.132812 Z M 450.714844 482.132812 " fill-opacity="1" fill-rule="nonzero"/><path fill="#000000" d="M -154.179688 535.703125 L -133.101562 556.78125 L 23.308594 400.363281 C 22.589844 392 22.203125 383.546875 22.203125 375 C 22.203125 212.546875 154.363281 80.378906 316.804688 80.378906 C 325.351562 80.378906 333.804688 80.769531 342.171875 81.484375 L 423.625 0.03125 L 196.367188 0.03125 L -139.585938 336.03125 L -119.554688 356.0625 C -109.09375 366.523438 -109.09375 383.476562 -119.554688 393.9375 L -154.179688 428.566406 L -119.554688 463.195312 C -114.53125 468.21875 -111.707031 475.03125 -111.707031 482.132812 C -111.707031 489.238281 -114.53125 496.050781 -119.550781 501.074219 Z M -154.179688 535.703125 " fill-opacity="1" fill-rule="nonzero"/><path fill="#000000" d="M 798.882812 187.515625 L 932.792969 187.515625 C 947.585938 187.515625 959.578125 199.507812 959.578125 214.296875 C 959.578125 229.089844 947.585938 241.082031 932.792969 241.082031 L 708.40625 241.082031 L 678.148438 271.34375 C 686.265625 275.949219 691.753906 284.648438 691.753906 294.648438 L 691.753906 421.871094 C 691.753906 425.5625 694.757812 428.566406 698.449219 428.566406 L 745.320312 428.566406 L 745.320312 348.214844 C 745.320312 333.425781 757.3125 321.433594 772.101562 321.433594 C 786.890625 321.433594 798.882812 333.425781 798.882812 348.214844 L 798.882812 428.566406 L 899.703125 428.566406 L 986.359375 341.910156 L 986.359375 321.433594 C 986.359375 306.640625 998.351562 294.648438 1013.140625 294.648438 C 1018.925781 294.648438 1024.265625 296.5 1028.644531 299.621094 L 1328.21875 0.03125 L 1077.800781 0.03125 L 1032.078125 45.753906 C 1021.621094 56.207031 1004.664062 56.207031 994.207031 45.753906 L 948.984375 0.527344 L 798.882812 150.632812 Z M 986.359375 107.164062 C 986.359375 92.371094 998.351562 80.378906 1013.140625 80.378906 C 1027.929688 80.378906 1039.921875 92.371094 1039.921875 107.164062 L 1039.921875 133.949219 C 1039.921875 148.738281 1027.929688 160.730469 1013.140625 160.730469 C 998.351562 160.730469 986.359375 148.738281 986.359375 133.949219 Z M 986.359375 214.296875 C 986.359375 199.507812 998.351562 187.515625 1013.140625 187.515625 C 1027.929688 187.515625 1039.921875 199.507812 1039.921875 214.296875 L 1039.921875 241.082031 C 1039.921875 255.875 1027.929688 267.867188 1013.140625 267.867188 C 998.351562 267.867188 986.359375 255.875 986.359375 241.082031 Z M 986.359375 214.296875 " fill-opacity="1" fill-rule="nonzero"/><path fill="#000000" d="M 236.460938 267.867188 C 236.460938 268.742188 236.417969 269.617188 236.332031 270.492188 C 236.246094 271.363281 236.117188 272.230469 235.945312 273.089844 C 235.773438 273.953125 235.5625 274.800781 235.304688 275.640625 C 235.050781 276.480469 234.757812 277.304688 234.421875 278.113281 C 234.085938 278.925781 233.710938 279.71875 233.296875 280.492188 C 232.882812 281.265625 232.433594 282.015625 231.945312 282.746094 C 231.457031 283.476562 230.9375 284.179688 230.378906 284.855469 C 229.824219 285.535156 229.234375 286.183594 228.617188 286.804688 C 227.996094 287.425781 227.347656 288.011719 226.667969 288.570312 C 225.988281 289.125 225.285156 289.648438 224.558594 290.136719 C 223.828125 290.621094 223.074219 291.074219 222.300781 291.488281 C 221.527344 291.898438 220.738281 292.273438 219.925781 292.609375 C 219.117188 292.945312 218.292969 293.242188 217.453125 293.496094 C 216.613281 293.75 215.761719 293.964844 214.902344 294.132812 C 214.042969 294.304688 213.175781 294.433594 212.304688 294.519531 C 211.429688 294.605469 210.554688 294.648438 209.675781 294.648438 C 208.800781 294.648438 207.925781 294.605469 207.050781 294.519531 C 206.179688 294.433594 205.3125 294.304688 204.453125 294.132812 C 203.59375 293.964844 202.742188 293.75 201.902344 293.496094 C 201.0625 293.242188 200.238281 292.945312 199.429688 292.609375 C 198.617188 292.273438 197.824219 291.898438 197.050781 291.488281 C 196.277344 291.074219 195.527344 290.621094 194.796875 290.136719 C 194.070312 289.648438 193.367188 289.125 192.6875 288.570312 C 192.007812 288.011719 191.359375 287.425781 190.738281 286.804688 C 190.121094 286.183594 189.53125 285.535156 188.976562 284.855469 C 188.417969 284.179688 187.894531 283.476562 187.410156 282.746094 C 186.921875 282.015625 186.472656 281.265625 186.058594 280.492188 C 185.644531 279.71875 185.269531 278.925781 184.933594 278.113281 C 184.597656 277.304688 184.304688 276.480469 184.046875 275.640625 C 183.792969 274.800781 183.582031 273.953125 183.410156 273.089844 C 183.238281 272.230469 183.109375 271.363281 183.023438 270.492188 C 182.9375 269.617188 182.894531 268.742188 182.894531 267.867188 C 182.894531 266.988281 182.9375 266.113281 183.023438 265.242188 C 183.109375 264.367188 183.238281 263.5 183.410156 262.640625 C 183.582031 261.78125 183.792969 260.929688 184.046875 260.089844 C 184.304688 259.25 184.597656 258.425781 184.933594 257.617188 C 185.269531 256.804688 185.644531 256.011719 186.058594 255.238281 C 186.472656 254.464844 186.921875 253.714844 187.410156 252.984375 C 187.894531 252.257812 188.417969 251.550781 188.976562 250.875 C 189.53125 250.195312 190.121094 249.546875 190.738281 248.925781 C 191.359375 248.304688 192.007812 247.71875 192.6875 247.160156 C 193.367188 246.605469 194.070312 246.082031 194.796875 245.597656 C 195.527344 245.109375 196.277344 244.660156 197.050781 244.246094 C 197.824219 243.832031 198.617188 243.457031 199.429688 243.121094 C 200.238281 242.785156 201.0625 242.488281 201.902344 242.234375 C 202.742188 241.980469 203.59375 241.769531 204.453125 241.597656 C 205.3125 241.425781 206.179688 241.296875 207.050781 241.210938 C 207.925781 241.125 208.800781 241.082031 209.675781 241.082031 C 210.554688 241.082031 211.429688 241.125 212.304688 241.210938 C 213.175781 241.296875 214.042969 241.425781 214.902344 241.597656 C 215.761719 241.769531 216.613281 241.980469 217.453125 242.234375 C 218.292969 242.488281 219.117188 242.785156 219.925781 243.121094 C 220.738281 243.457031 221.527344 243.832031 222.300781 244.246094 C 223.074219 244.660156 223.828125 245.109375 224.558594 245.597656 C 225.285156 246.082031 225.988281 246.605469 226.667969 247.160156 C 227.347656 247.71875 227.996094 248.304688 228.617188 248.925781 C 229.234375 249.546875 229.824219 250.195312 230.378906 250.875 C 230.9375 251.550781 231.457031 252.257812 231.945312 252.984375 C 232.433594 253.714844 232.882812 254.464844 233.296875 255.238281 C 233.710938 256.011719 234.085938 256.804688 234.421875 257.617188 C 234.757812 258.425781 235.050781 259.25 235.304688 260.089844 C 235.5625 260.929688 235.773438 261.78125 235.945312 262.640625 C 236.117188 263.5 236.246094 264.367188 236.332031 265.242188 C 236.417969 266.113281 236.460938 266.988281 236.460938 267.867188 Z M 236.460938 267.867188 " fill-opacity="1" fill-rule="nonzero"/><path fill="#000000" d="M 595.179688 278.554688 L 653.222656 220.507812 C 643.898438 209.894531 638.191406 196.027344 638.191406 180.820312 L 638.191406 53.597656 C 638.191406 38.804688 650.183594 26.8125 664.972656 26.8125 C 679.765625 26.8125 691.753906 38.804688 691.753906 53.597656 L 691.753906 180.820312 C 691.753906 184.511719 694.757812 187.515625 698.449219 187.515625 L 745.320312 187.515625 L 745.320312 107.164062 C 745.320312 92.371094 757.3125 80.378906 772.101562 80.378906 C 778.089844 80.378906 783.605469 82.371094 788.0625 85.695312 L 873.726562 0.03125 L 499.371094 0.03125 L 405.40625 94.003906 C 494.082031 122.027344 564.75 190.960938 595.179688 278.554688 Z M 595.179688 278.554688 " fill-opacity="1" fill-rule="nonzero"/><path fill="#000000" d="M 316.804688 133.949219 C 183.898438 133.949219 75.765625 242.082031 75.765625 375 C 75.765625 507.917969 183.898438 616.050781 316.804688 616.050781 C 449.714844 616.050781 557.84375 507.917969 557.84375 375 C 557.84375 242.082031 449.714844 133.949219 316.804688 133.949219 Z M 129.332031 267.867188 C 129.332031 223.5625 165.375 187.515625 209.675781 187.515625 C 253.980469 187.515625 290.023438 223.5625 290.023438 267.867188 C 290.023438 312.167969 253.980469 348.214844 209.675781 348.214844 C 165.375 348.214844 129.332031 312.167969 129.332031 267.867188 Z M 201.832031 527.855469 C 196.605469 533.085938 189.75 535.703125 182.894531 535.703125 C 176.042969 535.703125 169.1875 533.085938 163.957031 527.855469 C 153.496094 517.394531 153.496094 500.441406 163.957031 489.980469 L 431.777344 222.144531 C 442.238281 211.6875 459.191406 211.6875 469.652344 222.144531 C 480.113281 232.605469 480.113281 249.558594 469.652344 260.023438 Z M 423.933594 562.484375 C 379.628906 562.484375 343.589844 526.4375 343.589844 482.132812 C 343.589844 437.832031 379.628906 401.785156 423.933594 401.785156 C 468.238281 401.785156 504.28125 437.832031 504.28125 482.132812 C 504.28125 526.4375 468.238281 562.484375 423.933594 562.484375 Z M 423.933594 562.484375 " fill-opacity="1" fill-rule="nonzero"/><path fill="#000000" d="M 1334.527344 189.421875 L 1334.527344 69.476562 L 1039.921875 364.097656 L 1039.921875 428.566406 C 1039.921875 443.359375 1027.929688 455.351562 1013.140625 455.351562 C 998.351562 455.351562 986.359375 443.359375 986.359375 428.566406 L 986.359375 417.667969 L 957.910156 446.117188 C 958.96875 449 959.578125 452.101562 959.578125 455.351562 C 959.578125 470.140625 947.585938 482.132812 932.792969 482.132812 L 921.894531 482.132812 L 894.546875 509.484375 C 931.136719 513.941406 959.578125 545.183594 959.578125 582.957031 L 959.578125 649.148438 C 959.578125 689.972656 926.363281 723.1875 885.539062 723.1875 L 712.226562 723.1875 C 702.902344 723.1875 693.984375 721.4375 685.757812 718.277344 L 654.074219 749.96875 L 948.484375 749.96875 L 994.207031 704.246094 C 1004.664062 693.792969 1021.621094 693.792969 1032.078125 704.246094 L 1077.796875 749.96875 L 1334.527344 749.96875 L 1334.527344 560.578125 C 1243.792969 547.539062 1173.832031 469.289062 1173.832031 375 C 1173.832031 280.710938 1243.792969 202.460938 1334.527344 189.421875 Z M 1039.921875 642.835938 C 1039.921875 657.628906 1027.929688 669.621094 1013.140625 669.621094 C 998.351562 669.621094 986.359375 657.628906 986.359375 642.835938 L 986.359375 616.050781 C 986.359375 601.261719 998.351562 589.269531 1013.140625 589.269531 C 1027.929688 589.269531 1039.921875 601.261719 1039.921875 616.050781 Z M 1039.921875 535.703125 C 1039.921875 550.492188 1027.929688 562.484375 1013.140625 562.484375 C 998.351562 562.484375 986.359375 550.492188 986.359375 535.703125 L 986.359375 508.917969 C 986.359375 494.125 998.351562 482.132812 1013.140625 482.132812 C 1027.929688 482.132812 1039.921875 494.125 1039.921875 508.917969 Z M 1039.921875 535.703125 " fill-opacity="1" fill-rule="nonzero"/><path fill="#000000" d="M 691.753906 582.957031 L 691.753906 649.148438 C 691.753906 660.4375 700.941406 669.621094 712.230469 669.621094 L 885.539062 669.621094 C 896.828125 669.621094 906.015625 660.4375 906.015625 649.148438 L 906.015625 582.957031 C 906.015625 571.667969 896.828125 562.484375 885.539062 562.484375 L 712.230469 562.484375 C 700.941406 562.484375 691.753906 571.667969 691.753906 582.957031 Z M 691.753906 582.957031 " fill-opacity="1" fill-rule="nonzero"/><path fill="#000000" d="M 35.824219 463.601562 L -148.789062 648.226562 L -119.550781 677.460938 C -110.523438 686.488281 -109.125 700.632812 -116.203125 711.257812 L -142.011719 749.96875 L 123.792969 749.96875 L 220.367188 653.390625 C 132.777344 622.957031 63.847656 552.289062 35.824219 463.601562 Z M 35.824219 463.601562 " fill-opacity="1" fill-rule="nonzero"/><path fill="#000000" d="M 638.191406 582.957031 C 638.191406 542.132812 671.40625 508.917969 712.230469 508.917969 L 819.359375 508.917969 L 846.140625 482.132812 L 698.449219 482.132812 C 665.222656 482.132812 638.191406 455.097656 638.191406 421.871094 L 638.191406 311.300781 L 609.339844 340.15625 C 610.691406 351.585938 611.410156 363.210938 611.410156 375 C 611.410156 537.453125 479.25 669.621094 316.804688 669.621094 C 305.019531 669.621094 293.394531 668.902344 281.960938 667.550781 L 199.546875 749.96875 L 578.320312 749.96875 L 646.03125 682.25 C 641.027344 672.28125 638.1875 661.042969 638.1875 649.148438 L 638.1875 582.957031 Z M 638.191406 582.957031 " fill-opacity="1" fill-rule="nonzero"/></svg>